<svg width="479" height="388" viewBox="0 0 479 388" fill="none" xmlns="http://www.w3.org/2000/svg">
<rect width="479" height="388" rx="10" fill="white"/>
<path d="M0 10C0 4.47716 4.47715 0 10 0H469C474.523 0 479 4.47715 479 10V40.87H0V10Z" fill="#012344"/>
<ellipse cx="23.667" cy="20.435" rx="6.43126" ry="6.63475" fill="#ED4747"/>
<ellipse cx="47.8486" cy="20.435" rx="6.43126" ry="6.63475" fill="#EDE647"/>
<ellipse cx="72.0301" cy="20.435" rx="6.43126" ry="6.63475" fill="#47ED62"/>
<line x1="40.1283" y1="143.076" x2="438.866" y2="143.076" stroke="#A7A7A7"/>
<line x1="40.131" y1="196.154" x2="438.869" y2="196.154" stroke="#A7A7A7"/>
<line x1="40.131" y1="249.232" x2="438.869" y2="249.232" stroke="#A7A7A7"/>
<line x1="40.131" y1="302.31" x2="438.869" y2="302.31" stroke="#A7A7A7"/>
<line x1="40.131" y1="355.388" x2="438.869" y2="355.388" stroke="#A7A7A7"/>
<path d="M22.025 143.84H17.51V142.055L21.785 135.38H23.825V142.22H25.37V143.84H23.825V146H22.025V143.84ZM22.025 137.93H21.995L19.34 142.22H22.025V137.93ZM26.477 140.69C26.477 139.85 26.542 139.135 26.672 138.545C26.812 137.945 26.992 137.445 27.212 137.045C27.432 136.635 27.677 136.31 27.947 136.07C28.227 135.82 28.507 135.635 28.787 135.515C29.077 135.385 29.352 135.3 29.612 135.26C29.882 135.22 30.117 135.2 30.317 135.2C30.517 135.2 30.747 135.22 31.007 135.26C31.277 135.3 31.552 135.385 31.832 135.515C32.122 135.635 32.402 135.82 32.672 136.07C32.952 136.31 33.202 136.635 33.422 137.045C33.642 137.445 33.817 137.945 33.947 138.545C34.087 139.135 34.157 139.85 34.157 140.69C34.157 141.53 34.087 142.25 33.947 142.85C33.817 143.44 33.642 143.94 33.422 144.35C33.202 144.75 32.952 145.075 32.672 145.325C32.402 145.565 32.122 145.75 31.832 145.88C31.552 146 31.277 146.08 31.007 146.12C30.747 146.16 30.517 146.18 30.317 146.18C30.117 146.18 29.882 146.16 29.612 146.12C29.352 146.08 29.077 146 28.787 145.88C28.507 145.75 28.227 145.565 27.947 145.325C27.677 145.075 27.432 144.75 27.212 144.35C26.992 143.94 26.812 143.44 26.672 142.85C26.542 142.25 26.477 141.53 26.477 140.69ZM28.277 140.69C28.277 141.02 28.297 141.405 28.337 141.845C28.387 142.275 28.482 142.685 28.622 143.075C28.762 143.465 28.967 143.795 29.237 144.065C29.507 144.335 29.867 144.47 30.317 144.47C30.767 144.47 31.127 144.335 31.397 144.065C31.667 143.795 31.872 143.465 32.012 143.075C32.152 142.685 32.242 142.275 32.282 141.845C32.332 141.405 32.357 141.02 32.357 140.69C32.357 140.36 32.332 139.98 32.282 139.55C32.242 139.11 32.152 138.695 32.012 138.305C31.872 137.915 31.667 137.585 31.397 137.315C31.127 137.045 30.767 136.91 30.317 136.91C29.867 136.91 29.507 137.045 29.237 137.315C28.967 137.585 28.762 137.915 28.622 138.305C28.482 138.695 28.387 139.11 28.337 139.55C28.297 139.98 28.277 140.36 28.277 140.69Z" fill="#A7A7A7"/>
<path d="M20.33 188.655H20.795C21.055 188.655 21.305 188.64 21.545 188.61C21.795 188.58 22.015 188.515 22.205 188.415C22.405 188.315 22.565 188.17 22.685 187.98C22.805 187.79 22.865 187.535 22.865 187.215C22.865 186.805 22.725 186.47 22.445 186.21C22.165 185.95 21.8 185.82 21.35 185.82C20.99 185.82 20.665 185.925 20.375 186.135C20.095 186.335 19.89 186.62 19.76 186.99L17.855 186.48C17.975 186.09 18.145 185.75 18.365 185.46C18.585 185.17 18.845 184.935 19.145 184.755C19.445 184.565 19.775 184.425 20.135 184.335C20.495 184.245 20.87 184.2 21.26 184.2C21.72 184.2 22.155 184.26 22.565 184.38C22.975 184.5 23.335 184.68 23.645 184.92C23.955 185.15 24.2 185.445 24.38 185.805C24.57 186.155 24.665 186.565 24.665 187.035C24.665 187.605 24.505 188.115 24.185 188.565C23.865 189.005 23.42 189.295 22.85 189.435V189.465C23.53 189.565 24.045 189.855 24.395 190.335C24.745 190.815 24.92 191.385 24.92 192.045C24.92 192.555 24.82 193.005 24.62 193.395C24.43 193.785 24.17 194.115 23.84 194.385C23.51 194.645 23.125 194.845 22.685 194.985C22.255 195.115 21.805 195.18 21.335 195.18C20.895 195.18 20.48 195.13 20.09 195.03C19.7 194.94 19.345 194.795 19.025 194.595C18.715 194.395 18.445 194.14 18.215 193.83C17.985 193.51 17.81 193.13 17.69 192.69L19.61 192.18C19.72 192.62 19.915 192.96 20.195 193.2C20.475 193.44 20.855 193.56 21.335 193.56C21.575 193.56 21.8 193.52 22.01 193.44C22.23 193.36 22.42 193.25 22.58 193.11C22.75 192.96 22.88 192.785 22.97 192.585C23.07 192.375 23.12 192.145 23.12 191.895C23.12 191.555 23.045 191.28 22.895 191.07C22.755 190.85 22.57 190.685 22.34 190.575C22.12 190.455 21.87 190.375 21.59 190.335C21.31 190.295 21.035 190.275 20.765 190.275H20.33V188.655ZM26.477 189.69C26.477 188.85 26.542 188.135 26.672 187.545C26.812 186.945 26.992 186.445 27.212 186.045C27.432 185.635 27.677 185.31 27.947 185.07C28.227 184.82 28.507 184.635 28.787 184.515C29.077 184.385 29.352 184.3 29.612 184.26C29.882 184.22 30.117 184.2 30.317 184.2C30.517 184.2 30.747 184.22 31.007 184.26C31.277 184.3 31.552 184.385 31.832 184.515C32.122 184.635 32.402 184.82 32.672 185.07C32.952 185.31 33.202 185.635 33.422 186.045C33.642 186.445 33.817 186.945 33.947 187.545C34.087 188.135 34.157 188.85 34.157 189.69C34.157 190.53 34.087 191.25 33.947 191.85C33.817 192.44 33.642 192.94 33.422 193.35C33.202 193.75 32.952 194.075 32.672 194.325C32.402 194.565 32.122 194.75 31.832 194.88C31.552 195 31.277 195.08 31.007 195.12C30.747 195.16 30.517 195.18 30.317 195.18C30.117 195.18 29.882 195.16 29.612 195.12C29.352 195.08 29.077 195 28.787 194.88C28.507 194.75 28.227 194.565 27.947 194.325C27.677 194.075 27.432 193.75 27.212 193.35C26.992 192.94 26.812 192.44 26.672 191.85C26.542 191.25 26.477 190.53 26.477 189.69ZM28.277 189.69C28.277 190.02 28.297 190.405 28.337 190.845C28.387 191.275 28.482 191.685 28.622 192.075C28.762 192.465 28.967 192.795 29.237 193.065C29.507 193.335 29.867 193.47 30.317 193.47C30.767 193.47 31.127 193.335 31.397 193.065C31.667 192.795 31.872 192.465 32.012 192.075C32.152 191.685 32.242 191.275 32.282 190.845C32.332 190.405 32.357 190.02 32.357 189.69C32.357 189.36 32.332 188.98 32.282 188.55C32.242 188.11 32.152 187.695 32.012 187.305C31.872 186.915 31.667 186.585 31.397 186.315C31.127 186.045 30.767 185.91 30.317 185.91C29.867 185.91 29.507 186.045 29.237 186.315C28.967 186.585 28.762 186.915 28.622 187.305C28.482 187.695 28.387 188.11 28.337 188.55C28.297 188.98 28.277 189.36 28.277 189.69Z" fill="#A7A7A7"/>
<path d="M17.885 247.095L22.01 243.105C22.13 242.985 22.255 242.86 22.385 242.73C22.515 242.59 22.63 242.445 22.73 242.295C22.84 242.145 22.93 241.99 23 241.83C23.07 241.66 23.105 241.485 23.105 241.305C23.105 241.085 23.06 240.89 22.97 240.72C22.89 240.55 22.78 240.405 22.64 240.285C22.5 240.165 22.335 240.075 22.145 240.015C21.965 239.945 21.77 239.91 21.56 239.91C21.11 239.91 20.74 240.04 20.45 240.3C20.16 240.56 19.985 240.91 19.925 241.35L18.035 241.2C18.075 240.71 18.19 240.28 18.38 239.91C18.58 239.53 18.835 239.215 19.145 238.965C19.455 238.715 19.815 238.525 20.225 238.395C20.635 238.265 21.08 238.2 21.56 238.2C22.04 238.2 22.485 238.265 22.895 238.395C23.315 238.515 23.68 238.7 23.99 238.95C24.3 239.19 24.545 239.5 24.725 239.88C24.905 240.26 24.995 240.705 24.995 241.215C24.995 241.885 24.84 242.465 24.53 242.955C24.23 243.435 23.84 243.895 23.36 244.335L20.075 247.38H24.995V249H17.885V247.095ZM26.477 243.69C26.477 242.85 26.542 242.135 26.672 241.545C26.812 240.945 26.992 240.445 27.212 240.045C27.432 239.635 27.677 239.31 27.947 239.07C28.227 238.82 28.507 238.635 28.787 238.515C29.077 238.385 29.352 238.3 29.612 238.26C29.882 238.22 30.117 238.2 30.317 238.2C30.517 238.2 30.747 238.22 31.007 238.26C31.277 238.3 31.552 238.385 31.832 238.515C32.122 238.635 32.402 238.82 32.672 239.07C32.952 239.31 33.202 239.635 33.422 240.045C33.642 240.445 33.817 240.945 33.947 241.545C34.087 242.135 34.157 242.85 34.157 243.69C34.157 244.53 34.087 245.25 33.947 245.85C33.817 246.44 33.642 246.94 33.422 247.35C33.202 247.75 32.952 248.075 32.672 248.325C32.402 248.565 32.122 248.75 31.832 248.88C31.552 249 31.277 249.08 31.007 249.12C30.747 249.16 30.517 249.18 30.317 249.18C30.117 249.18 29.882 249.16 29.612 249.12C29.352 249.08 29.077 249 28.787 248.88C28.507 248.75 28.227 248.565 27.947 248.325C27.677 248.075 27.432 247.75 27.212 247.35C26.992 246.94 26.812 246.44 26.672 245.85C26.542 245.25 26.477 244.53 26.477 243.69ZM28.277 243.69C28.277 244.02 28.297 244.405 28.337 244.845C28.387 245.275 28.482 245.685 28.622 246.075C28.762 246.465 28.967 246.795 29.237 247.065C29.507 247.335 29.867 247.47 30.317 247.47C30.767 247.47 31.127 247.335 31.397 247.065C31.667 246.795 31.872 246.465 32.012 246.075C32.152 245.685 32.242 245.275 32.282 244.845C32.332 244.405 32.357 244.02 32.357 243.69C32.357 243.36 32.332 242.98 32.282 242.55C32.242 242.11 32.152 241.695 32.012 241.305C31.872 240.915 31.667 240.585 31.397 240.315C31.127 240.045 30.767 239.91 30.317 239.91C29.867 239.91 29.507 240.045 29.237 240.315C28.967 240.585 28.762 240.915 28.622 241.305C28.482 241.695 28.387 242.11 28.337 242.55C28.297 242.98 28.277 243.36 28.277 243.69Z" fill="#A7A7A7"/>
<path d="M21.02 293.45L19.025 295.295L17.975 294.05L21.185 291.38H22.82V302H21.02V293.45ZM26.477 296.69C26.477 295.85 26.542 295.135 26.672 294.545C26.812 293.945 26.992 293.445 27.212 293.045C27.432 292.635 27.677 292.31 27.947 292.07C28.227 291.82 28.507 291.635 28.787 291.515C29.077 291.385 29.352 291.3 29.612 291.26C29.882 291.22 30.117 291.2 30.317 291.2C30.517 291.2 30.747 291.22 31.007 291.26C31.277 291.3 31.552 291.385 31.832 291.515C32.122 291.635 32.402 291.82 32.672 292.07C32.952 292.31 33.202 292.635 33.422 293.045C33.642 293.445 33.817 293.945 33.947 294.545C34.087 295.135 34.157 295.85 34.157 296.69C34.157 297.53 34.087 298.25 33.947 298.85C33.817 299.44 33.642 299.94 33.422 300.35C33.202 300.75 32.952 301.075 32.672 301.325C32.402 301.565 32.122 301.75 31.832 301.88C31.552 302 31.277 302.08 31.007 302.12C30.747 302.16 30.517 302.18 30.317 302.18C30.117 302.18 29.882 302.16 29.612 302.12C29.352 302.08 29.077 302 28.787 301.88C28.507 301.75 28.227 301.565 27.947 301.325C27.677 301.075 27.432 300.75 27.212 300.35C26.992 299.94 26.812 299.44 26.672 298.85C26.542 298.25 26.477 297.53 26.477 296.69ZM28.277 296.69C28.277 297.02 28.297 297.405 28.337 297.845C28.387 298.275 28.482 298.685 28.622 299.075C28.762 299.465 28.967 299.795 29.237 300.065C29.507 300.335 29.867 300.47 30.317 300.47C30.767 300.47 31.127 300.335 31.397 300.065C31.667 299.795 31.872 299.465 32.012 299.075C32.152 298.685 32.242 298.275 32.282 297.845C32.332 297.405 32.357 297.02 32.357 296.69C32.357 296.36 32.332 295.98 32.282 295.55C32.242 295.11 32.152 294.695 32.012 294.305C31.872 293.915 31.667 293.585 31.397 293.315C31.127 293.045 30.767 292.91 30.317 292.91C29.867 292.91 29.507 293.045 29.237 293.315C28.967 293.585 28.762 293.915 28.622 294.305C28.482 294.695 28.387 295.11 28.337 295.55C28.297 295.98 28.277 296.36 28.277 296.69Z" fill="#A7A7A7"/>
<path d="M24.6 349.69C24.6 348.85 24.665 348.135 24.795 347.545C24.935 346.945 25.115 346.445 25.335 346.045C25.555 345.635 25.8 345.31 26.07 345.07C26.35 344.82 26.63 344.635 26.91 344.515C27.2 344.385 27.475 344.3 27.735 344.26C28.005 344.22 28.24 344.2 28.44 344.2C28.64 344.2 28.87 344.22 29.13 344.26C29.4 344.3 29.675 344.385 29.955 344.515C30.245 344.635 30.525 344.82 30.795 345.07C31.075 345.31 31.325 345.635 31.545 346.045C31.765 346.445 31.94 346.945 32.07 347.545C32.21 348.135 32.28 348.85 32.28 349.69C32.28 350.53 32.21 351.25 32.07 351.85C31.94 352.44 31.765 352.94 31.545 353.35C31.325 353.75 31.075 354.075 30.795 354.325C30.525 354.565 30.245 354.75 29.955 354.88C29.675 355 29.4 355.08 29.13 355.12C28.87 355.16 28.64 355.18 28.44 355.18C28.24 355.18 28.005 355.16 27.735 355.12C27.475 355.08 27.2 355 26.91 354.88C26.63 354.75 26.35 354.565 26.07 354.325C25.8 354.075 25.555 353.75 25.335 353.35C25.115 352.94 24.935 352.44 24.795 351.85C24.665 351.25 24.6 350.53 24.6 349.69ZM26.4 349.69C26.4 350.02 26.42 350.405 26.46 350.845C26.51 351.275 26.605 351.685 26.745 352.075C26.885 352.465 27.09 352.795 27.36 353.065C27.63 353.335 27.99 353.47 28.44 353.47C28.89 353.47 29.25 353.335 29.52 353.065C29.79 352.795 29.995 352.465 30.135 352.075C30.275 351.685 30.365 351.275 30.405 350.845C30.455 350.405 30.48 350.02 30.48 349.69C30.48 349.36 30.455 348.98 30.405 348.55C30.365 348.11 30.275 347.695 30.135 347.305C29.995 346.915 29.79 346.585 29.52 346.315C29.25 346.045 28.89 345.91 28.44 345.91C27.99 345.91 27.63 346.045 27.36 346.315C27.09 346.585 26.885 346.915 26.745 347.305C26.605 347.695 26.51 348.11 26.46 348.55C26.42 348.98 26.4 349.36 26.4 349.69Z" fill="#A7A7A7"/>
<path d="M35.9238 78.199C35.2838 77.367 34.4731 76.727 33.4918 76.279C32.5104 75.831 31.4971 75.607 30.4518 75.607C29.1718 75.607 28.0091 75.8523 26.9638 76.343C25.9398 76.8123 25.0544 77.463 24.3078 78.295C23.5824 79.127 23.0171 80.1083 22.6118 81.239C22.2064 82.3483 22.0038 83.543 22.0038 84.823C22.0038 86.0177 22.1958 87.1483 22.5798 88.215C22.9638 89.2817 23.5184 90.2203 24.2438 91.031C24.9691 91.8417 25.8544 92.4817 26.8998 92.951C27.9451 93.4203 29.1291 93.655 30.4518 93.655C31.7531 93.655 32.8944 93.3883 33.8758 92.855C34.8571 92.3217 35.6891 91.575 36.3718 90.615L38.9638 92.567C38.7931 92.8017 38.4944 93.143 38.0678 93.591C37.6411 94.0177 37.0758 94.455 36.3718 94.903C35.6678 95.3297 34.8144 95.703 33.8118 96.023C32.8304 96.3643 31.6891 96.535 30.3878 96.535C28.5958 96.535 26.9744 96.1937 25.5238 95.511C24.0944 94.8283 22.8678 93.9323 21.8438 92.823C20.8411 91.7137 20.0731 90.4657 19.5398 89.079C19.0064 87.671 18.7398 86.2523 18.7398 84.823C18.7398 83.0737 19.0278 81.463 19.6038 79.991C20.1798 78.4977 20.9798 77.2177 22.0038 76.151C23.0491 75.063 24.2971 74.2203 25.7478 73.623C27.1984 73.0257 28.7984 72.727 30.5478 72.727C32.0411 72.727 33.5024 73.015 34.9318 73.591C36.3824 74.167 37.5664 75.0523 38.4838 76.247L35.9238 78.199ZM41.943 80.791H44.823V83.127H44.887C45.079 82.7217 45.335 82.359 45.655 82.039C45.975 81.6976 46.327 81.4097 46.711 81.175C47.1164 80.9403 47.5537 80.759 48.023 80.631C48.4924 80.4817 48.9617 80.407 49.431 80.407C49.9004 80.407 50.327 80.471 50.711 80.599L50.583 83.703C50.3484 83.639 50.1137 83.5857 49.879 83.543C49.6444 83.5003 49.4097 83.479 49.175 83.479C47.767 83.479 46.6897 83.8737 45.943 84.663C45.1964 85.4523 44.823 86.679 44.823 88.343V95.959H41.943V80.791ZM55.4003 89.431C55.4003 90.0923 55.5389 90.7003 55.8163 91.255C56.1149 91.7883 56.4989 92.247 56.9683 92.631C57.4376 93.015 57.9816 93.3137 58.6003 93.527C59.2189 93.7403 59.8589 93.847 60.5203 93.847C61.4163 93.847 62.1949 93.6443 62.8563 93.239C63.5176 92.8123 64.1256 92.2577 64.6803 91.575L66.8563 93.239C65.2563 95.3083 63.0163 96.343 60.1363 96.343C58.9416 96.343 57.8536 96.1403 56.8723 95.735C55.9123 95.3297 55.0909 94.775 54.4083 94.071C53.7469 93.3457 53.2349 92.503 52.8723 91.543C52.5096 90.5617 52.3283 89.5057 52.3283 88.375C52.3283 87.2443 52.5203 86.199 52.9043 85.239C53.3096 84.2577 53.8536 83.415 54.5363 82.711C55.2403 81.9857 56.0723 81.4203 57.0323 81.015C57.9923 80.6097 59.0376 80.407 60.1683 80.407C61.5123 80.407 62.6429 80.6417 63.5603 81.111C64.4989 81.5803 65.2669 82.199 65.8643 82.967C66.4616 83.7137 66.8883 84.567 67.1443 85.527C67.4216 86.4657 67.5603 87.4257 67.5603 88.407V89.431H55.4003ZM64.4883 87.127C64.4669 86.487 64.3603 85.9003 64.1683 85.367C63.9976 84.8337 63.7309 84.375 63.3683 83.991C63.0056 83.5857 62.5469 83.2763 61.9923 83.063C61.4589 82.8283 60.8296 82.711 60.1043 82.711C59.4003 82.711 58.7496 82.8497 58.1523 83.127C57.5763 83.383 57.0856 83.7243 56.6803 84.151C56.2749 84.5777 55.9549 85.0577 55.7203 85.591C55.5069 86.103 55.4003 86.615 55.4003 87.127H64.4883ZM71.0695 82.647C71.8802 81.9003 72.8189 81.3457 73.8855 80.983C74.9522 80.599 76.0189 80.407 77.0855 80.407C78.1949 80.407 79.1442 80.5457 79.9335 80.823C80.7442 81.1003 81.4055 81.4737 81.9175 81.943C82.4295 82.4123 82.8029 82.9563 83.0375 83.575C83.2935 84.1723 83.4215 84.8017 83.4215 85.463V93.207C83.4215 93.7403 83.4322 94.231 83.4535 94.679C83.4749 95.127 83.5069 95.5537 83.5495 95.959H80.9895C80.9255 95.191 80.8935 94.423 80.8935 93.655H80.8295C80.1895 94.6363 79.4322 95.3297 78.5575 95.735C77.6829 96.1403 76.6695 96.343 75.5175 96.343C74.8135 96.343 74.1415 96.247 73.5015 96.055C72.8615 95.863 72.2962 95.575 71.8055 95.191C71.3362 94.807 70.9629 94.3377 70.6855 93.783C70.4082 93.207 70.2695 92.5457 70.2695 91.799C70.2695 90.8177 70.4829 89.9963 70.9095 89.335C71.3575 88.6737 71.9549 88.1403 72.7015 87.735C73.4695 87.3083 74.3549 87.0097 75.3575 86.839C76.3815 86.647 77.4695 86.551 78.6215 86.551H80.7335V85.911C80.7335 85.527 80.6589 85.143 80.5095 84.759C80.3602 84.375 80.1362 84.0337 79.8375 83.735C79.5389 83.415 79.1655 83.1697 78.7175 82.999C78.2695 82.807 77.7362 82.711 77.1175 82.711C76.5629 82.711 76.0722 82.7643 75.6455 82.871C75.2402 82.9777 74.8669 83.1163 74.5255 83.287C74.1842 83.4363 73.8749 83.6177 73.5975 83.831C73.3202 84.0443 73.0535 84.247 72.7975 84.439L71.0695 82.647ZM79.1975 88.663C78.5149 88.663 77.8109 88.7057 77.0855 88.791C76.3815 88.855 75.7309 88.9937 75.1335 89.207C74.5575 89.4203 74.0775 89.719 73.6935 90.103C73.3309 90.487 73.1495 90.9777 73.1495 91.575C73.1495 92.4497 73.4375 93.079 74.0135 93.463C74.6109 93.847 75.4109 94.039 76.4135 94.039C77.2029 94.039 77.8749 93.911 78.4295 93.655C78.9842 93.3777 79.4322 93.0257 79.7735 92.599C80.1149 92.1723 80.3602 91.703 80.5095 91.191C80.6589 90.6577 80.7335 90.135 80.7335 89.623V88.663H79.1975ZM95.7273 83.287H91.5993V90.167C91.5993 90.5937 91.6099 91.0203 91.6313 91.447C91.6526 91.8523 91.7273 92.2257 91.8553 92.567C92.0046 92.887 92.2179 93.1537 92.4953 93.367C92.7939 93.559 93.2206 93.655 93.7753 93.655C94.1166 93.655 94.4686 93.623 94.8313 93.559C95.1939 93.495 95.5246 93.3777 95.8233 93.207V95.831C95.4819 96.023 95.0339 96.151 94.4793 96.215C93.9459 96.3003 93.5299 96.343 93.2313 96.343C92.1219 96.343 91.2579 96.1937 90.6393 95.895C90.0419 95.575 89.5939 95.1697 89.2953 94.679C89.0179 94.1883 88.8473 93.6443 88.7833 93.047C88.7406 92.4283 88.7193 91.8097 88.7193 91.191V83.287H85.3913V80.791H88.7193V76.535H91.5993V80.791H95.7273V83.287ZM101.619 89.431C101.619 90.0923 101.758 90.7003 102.035 91.255C102.334 91.7883 102.718 92.247 103.187 92.631C103.656 93.015 104.2 93.3137 104.819 93.527C105.438 93.7403 106.078 93.847 106.739 93.847C107.635 93.847 108.414 93.6443 109.075 93.239C109.736 92.8123 110.344 92.2577 110.899 91.575L113.075 93.239C111.475 95.3083 109.235 96.343 106.355 96.343C105.16 96.343 104.072 96.1403 103.091 95.735C102.131 95.3297 101.31 94.775 100.627 94.071C99.9657 93.3457 99.4537 92.503 99.091 91.543C98.7284 90.5617 98.547 89.5057 98.547 88.375C98.547 87.2443 98.739 86.199 99.123 85.239C99.5284 84.2577 100.072 83.415 100.755 82.711C101.459 81.9857 102.291 81.4203 103.251 81.015C104.211 80.6097 105.256 80.407 106.387 80.407C107.731 80.407 108.862 80.6417 109.779 81.111C110.718 81.5803 111.486 82.199 112.083 82.967C112.68 83.7137 113.107 84.567 113.363 85.527C113.64 86.4657 113.779 87.4257 113.779 88.407V89.431H101.619ZM110.707 87.127C110.686 86.487 110.579 85.9003 110.387 85.367C110.216 84.8337 109.95 84.375 109.587 83.991C109.224 83.5857 108.766 83.2763 108.211 83.063C107.678 82.8283 107.048 82.711 106.323 82.711C105.619 82.711 104.968 82.8497 104.371 83.127C103.795 83.383 103.304 83.7243 102.899 84.151C102.494 84.5777 102.174 85.0577 101.939 85.591C101.726 86.103 101.619 86.615 101.619 87.127H110.707ZM126.867 73.303H129.939V95.959H126.867V73.303ZM135.037 80.791H137.917V83.127H137.981C138.343 82.3163 138.973 81.6657 139.869 81.175C140.765 80.663 141.799 80.407 142.973 80.407C143.698 80.407 144.391 80.5243 145.053 80.759C145.735 80.9723 146.322 81.3137 146.813 81.783C147.325 82.2523 147.73 82.8603 148.029 83.607C148.327 84.3323 148.477 85.1963 148.477 86.199V95.959H145.597V86.999C145.597 86.295 145.501 85.6977 145.309 85.207C145.117 84.695 144.861 84.2897 144.541 83.991C144.221 83.671 143.847 83.447 143.421 83.319C143.015 83.1697 142.589 83.095 142.141 83.095C141.543 83.095 140.989 83.191 140.477 83.383C139.965 83.575 139.517 83.8843 139.133 84.311C138.749 84.7163 138.45 85.239 138.237 85.879C138.023 86.519 137.917 87.2763 137.917 88.151V95.959H135.037V80.791ZM160.882 84.599C160.541 84.1723 160.114 83.8203 159.602 83.543C159.111 83.2443 158.503 83.095 157.778 83.095C157.095 83.095 156.498 83.2443 155.986 83.543C155.495 83.8203 155.25 84.2363 155.25 84.791C155.25 85.239 155.389 85.6017 155.666 85.879C155.965 86.1563 156.306 86.3803 156.69 86.551C157.095 86.7217 157.522 86.8497 157.97 86.935C158.418 87.0203 158.802 87.095 159.122 87.159C159.741 87.3083 160.317 87.4897 160.85 87.703C161.405 87.9163 161.874 88.1937 162.258 88.535C162.663 88.8763 162.973 89.2923 163.186 89.783C163.421 90.2737 163.538 90.871 163.538 91.575C163.538 92.4283 163.357 93.1643 162.994 93.783C162.631 94.3803 162.162 94.871 161.586 95.255C161.01 95.639 160.349 95.9163 159.602 96.087C158.877 96.2577 158.141 96.343 157.394 96.343C156.135 96.343 155.026 96.151 154.066 95.767C153.127 95.383 152.285 94.679 151.538 93.655L153.714 91.863C154.183 92.3323 154.706 92.7483 155.282 93.111C155.858 93.4737 156.562 93.655 157.394 93.655C157.757 93.655 158.119 93.623 158.482 93.559C158.866 93.4737 159.197 93.3563 159.474 93.207C159.773 93.0363 160.007 92.8337 160.178 92.599C160.37 92.343 160.466 92.055 160.466 91.735C160.466 91.3083 160.327 90.9563 160.05 90.679C159.794 90.4017 159.474 90.1883 159.09 90.039C158.727 89.8683 158.333 89.7403 157.906 89.655C157.501 89.5483 157.138 89.463 156.818 89.399C156.199 89.2497 155.613 89.079 155.058 88.887C154.503 88.695 154.013 88.439 153.586 88.119C153.159 87.799 152.818 87.3937 152.562 86.903C152.306 86.4123 152.178 85.8043 152.178 85.079C152.178 84.2897 152.338 83.607 152.658 83.031C152.999 82.4337 153.437 81.943 153.97 81.559C154.525 81.175 155.143 80.887 155.826 80.695C156.53 80.503 157.234 80.407 157.938 80.407C158.962 80.407 159.943 80.599 160.882 80.983C161.821 81.367 162.567 82.007 163.122 82.903L160.882 84.599ZM167.261 80.791H170.141V95.959H167.261V80.791ZM166.589 75.351C166.589 74.775 166.791 74.2843 167.197 73.879C167.623 73.4523 168.125 73.239 168.701 73.239C169.277 73.239 169.767 73.4523 170.173 73.879C170.599 74.2843 170.813 74.775 170.813 75.351C170.813 75.927 170.599 76.4283 170.173 76.855C169.767 77.2603 169.277 77.463 168.701 77.463C168.125 77.463 167.623 77.2603 167.197 76.855C166.791 76.4283 166.589 75.927 166.589 75.351ZM189.924 95.831C189.924 96.983 189.722 98.0283 189.316 98.967C188.932 99.927 188.378 100.748 187.652 101.431C186.927 102.135 186.052 102.679 185.028 103.063C184.004 103.447 182.874 103.639 181.636 103.639C180.186 103.639 178.852 103.436 177.636 103.031C176.442 102.626 175.3 101.922 174.212 100.919L176.164 98.487C176.911 99.2977 177.722 99.9057 178.596 100.311C179.471 100.738 180.463 100.951 181.572 100.951C182.639 100.951 183.524 100.791 184.228 100.471C184.932 100.172 185.487 99.7777 185.892 99.287C186.319 98.7963 186.618 98.231 186.788 97.591C186.959 96.9723 187.044 96.343 187.044 95.703V93.463H186.948C186.394 94.3803 185.636 95.063 184.676 95.511C183.738 95.9377 182.746 96.151 181.7 96.151C180.591 96.151 179.556 95.959 178.596 95.575C177.658 95.1697 176.847 94.6257 176.164 93.943C175.482 93.239 174.948 92.4177 174.564 91.479C174.18 90.519 173.988 89.4843 173.988 88.375C173.988 87.2657 174.17 86.231 174.532 85.271C174.895 84.2897 175.407 83.4363 176.068 82.711C176.751 81.9857 177.562 81.4203 178.5 81.015C179.46 80.6097 180.527 80.407 181.7 80.407C182.724 80.407 183.716 80.631 184.676 81.079C185.658 81.527 186.426 82.1563 186.98 82.967H187.044V80.791H189.924V95.831ZM182.052 83.095C181.284 83.095 180.591 83.2337 179.972 83.511C179.354 83.767 178.831 84.1297 178.404 84.599C177.978 85.047 177.647 85.6017 177.412 86.263C177.178 86.903 177.06 87.607 177.06 88.375C177.06 89.911 177.508 91.1483 178.404 92.087C179.3 93.0043 180.516 93.463 182.052 93.463C183.588 93.463 184.804 93.0043 185.7 92.087C186.596 91.1483 187.044 89.911 187.044 88.375C187.044 87.607 186.927 86.903 186.692 86.263C186.458 85.6017 186.127 85.047 185.7 84.599C185.274 84.1297 184.751 83.767 184.132 83.511C183.514 83.2337 182.82 83.095 182.052 83.095ZM194.287 71.767H197.167V83.127H197.231C197.593 82.3163 198.223 81.6657 199.119 81.175C200.015 80.663 201.049 80.407 202.223 80.407C202.948 80.407 203.641 80.5243 204.303 80.759C204.985 80.9723 205.572 81.3137 206.063 81.783C206.575 82.2523 206.98 82.8603 207.279 83.607C207.577 84.3323 207.727 85.1963 207.727 86.199V95.959H204.847V86.999C204.847 86.295 204.751 85.6977 204.559 85.207C204.367 84.695 204.111 84.2897 203.791 83.991C203.471 83.671 203.097 83.447 202.671 83.319C202.265 83.1697 201.839 83.095 201.391 83.095C200.793 83.095 200.239 83.191 199.727 83.383C199.215 83.575 198.767 83.8843 198.383 84.311C197.999 84.7163 197.7 85.239 197.487 85.879C197.273 86.519 197.167 87.2763 197.167 88.151V95.959H194.287V71.767ZM220.196 83.287H216.068V90.167C216.068 90.5937 216.079 91.0203 216.1 91.447C216.121 91.8523 216.196 92.2257 216.324 92.567C216.473 92.887 216.687 93.1537 216.964 93.367C217.263 93.559 217.689 93.655 218.244 93.655C218.585 93.655 218.937 93.623 219.3 93.559C219.663 93.495 219.993 93.3777 220.292 93.207V95.831C219.951 96.023 219.503 96.151 218.948 96.215C218.415 96.3003 217.999 96.343 217.7 96.343C216.591 96.343 215.727 96.1937 215.108 95.895C214.511 95.575 214.063 95.1697 213.764 94.679C213.487 94.1883 213.316 93.6443 213.252 93.047C213.209 92.4283 213.188 91.8097 213.188 91.191V83.287H209.86V80.791H213.188V76.535H216.068V80.791H220.196V83.287ZM231.976 84.599C231.634 84.1723 231.208 83.8203 230.696 83.543C230.205 83.2443 229.597 83.095 228.872 83.095C228.189 83.095 227.592 83.2443 227.08 83.543C226.589 83.8203 226.344 84.2363 226.344 84.791C226.344 85.239 226.482 85.6017 226.76 85.879C227.058 86.1563 227.4 86.3803 227.784 86.551C228.189 86.7217 228.616 86.8497 229.064 86.935C229.512 87.0203 229.896 87.095 230.216 87.159C230.834 87.3083 231.41 87.4897 231.944 87.703C232.498 87.9163 232.968 88.1937 233.352 88.535C233.757 88.8763 234.066 89.2923 234.28 89.783C234.514 90.2737 234.632 90.871 234.632 91.575C234.632 92.4283 234.45 93.1643 234.088 93.783C233.725 94.3803 233.256 94.871 232.68 95.255C232.104 95.639 231.442 95.9163 230.696 96.087C229.97 96.2577 229.234 96.343 228.488 96.343C227.229 96.343 226.12 96.151 225.16 95.767C224.221 95.383 223.378 94.679 222.632 93.655L224.808 91.863C225.277 92.3323 225.8 92.7483 226.376 93.111C226.952 93.4737 227.656 93.655 228.488 93.655C228.85 93.655 229.213 93.623 229.576 93.559C229.96 93.4737 230.29 93.3563 230.568 93.207C230.866 93.0363 231.101 92.8337 231.272 92.599C231.464 92.343 231.56 92.055 231.56 91.735C231.56 91.3083 231.421 90.9563 231.144 90.679C230.888 90.4017 230.568 90.1883 230.184 90.039C229.821 89.8683 229.426 89.7403 229 89.655C228.594 89.5483 228.232 89.463 227.912 89.399C227.293 89.2497 226.706 89.079 226.152 88.887C225.597 88.695 225.106 88.439 224.68 88.119C224.253 87.799 223.912 87.3937 223.656 86.903C223.4 86.4123 223.272 85.8043 223.272 85.079C223.272 84.2897 223.432 83.607 223.752 83.031C224.093 82.4337 224.53 81.943 225.064 81.559C225.618 81.175 226.237 80.887 226.92 80.695C227.624 80.503 228.328 80.407 229.032 80.407C230.056 80.407 231.037 80.599 231.976 80.983C232.914 81.367 233.661 82.007 234.216 82.903L231.976 84.599Z" fill="black"/>
<rect x="58.1385" y="188.427" width="38.5875" height="167.461" rx="10" fill="#004E98"/>
<rect x="120.393" y="153.926" width="38.8448" height="201.962" rx="10" fill="#004E98"/>
<rect x="188.822" y="246.282" width="38.5875" height="109.606" rx="10" fill="#004E98"/>
<rect x="257.25" y="270.167" width="38.5875" height="85.7209" rx="10" fill="#004E98"/>
<rect x="319.505" y="188.427" width="40.6455" height="167.461" rx="10" fill="#004E98"/>
<rect x="381.759" y="165.338" width="38.5875" height="190.55" rx="10" fill="#004E98"/>
</svg>
